<svg transform="scale(-1, -1)" height="24px" viewBox="0 0 512 512" width="24px" fill="#1D84FF" xmlns="http://www.w3.org/2000/svg" class=""><path d="M453.267 116.811c-5.322-12.182-11.915-23.951-19.754-34.941-15.668-21.999-36.22-40.848-59.913-54.882C349.902 12.957 322.927 3.953 295.107 1c-41.088-4.31-83.51 5.631-119.308 23.744-70.561 35.701-122.477 106.63-130.144 185.452-9.417 96.806 27.367 225.548 177.32 285.785 51.731 20.78 109.205 20.569 155.576 3.837 19.428-7.01 34.446-18.965 34.446-18.965-74.002-8.679-144.79-24.678-206.989-70.928-68.969-51.285-90.157-111.946-90.69-162.346-.478-45.167 12.826-89.708 47.871-124.862 31.776-31.877 78.513-53.026 124.03-48.145l.073.008c57.049 6.152 113.162 58.972 110.542 118.325-2.705 61.298-80.635 112.54-132.233 62.812-22.048-21.249-22.051-52.307-8.981-79.08 7.878-16.137 21.546-28.038 21.546-28.038s-3.139-.95-4.724-1.318c-31.825-6.275-62.271 16.751-74.466 44.948-40.671 95.325 71.988 176.649 161.941 144.529 21.892-7.817 43.525-19.882 61.174-37.486 4.464-4.346 8.569-9.098 12.544-14.003 37.138-48.246 42.513-113.793 18.632-168.458z"></path></svg>